# xmcd
#
# Track frame offsets:
#	150
#	16267
#	33229
#	52534
#	70421
#	86867
#	104955
#	122527
#	142944
#	156931
#	175935
#	190776
#	207526
#	223584
#	241359
#	259890
#	280160
#	290165
#
# Disc length: 4088 seconds
#
# Revision: 3
# Processed by: cddbd v1.5.2PL0 Copyright (c) Steve Scherf et al.
# Submitted via: audiograbber 1.83.01
#
DISCID=110ff612
DTITLE=Various Artist - Now That's What I Call Music 14
DYEAR=2004
DGENRE=Pop
TTITLE0=Jamelia - Superstar
TTITLE1=The Black Eyed Peas - Shut Up
TTITLE2=Scribe - Dreaming
TTITLE3=Beyoncé - Me Myself And I
TTITLE4=Adeaze - A Life With You
TTITLE5=Baby Bash - Suga Suga (Feat. Frankie J)
TTITLE6=Mareko - Stop, Drop and Roll (Feat. Deceptikonz)
TTITLE7=Chingy - Holidae In (Feat. Ludacris and Snoop Dogg)
TTITLE8=Kelis - Milkshake
TTITLE9=Bubba Sparxxx - Back In The Mud
TTITLE10=Alien Ant Farm - Glow
TTITLE11=Atomic Kitten - If You Come To Me
TTITLE12=Blue - Signed, Sealed, Delivered I'm Yours (Feat. Stevie Wonder and An
TTITLE12=gie Stone)
TTITLE13=3 Doors Down - Here Without You
TTITLE14=Brooke Fraser - Lifeline
TTITLE15=Limp Bizkit - Behind Blue Eyes
TTITLE16=Elemeno P - Urban Getaway
TTITLE17=Girls Aloud - Jump
EXTD=YEAR: 2004
EXTT0=
EXTT1=
EXTT2=
EXTT3=
EXTT4=
EXTT5=
EXTT6=
EXTT7=
EXTT8=
EXTT9=
EXTT10=
EXTT11=
EXTT12=
EXTT13=
EXTT14=
EXTT15=
EXTT16=
EXTT17=
PLAYORDER=
